<?xml version="1.0" encoding="UTF-8"?>
<!DOCTYPE svg PUBLIC "-//W3C//DTD SVG 1.1//EN" "http://www.w3.org/Graphics/SVG/1.1/DTD/svg11.dtd">
<!-- Creator: CorelDRAW X6 -->
<svg xmlns="http://www.w3.org/2000/svg" xml:space="preserve" width="15.2778in" height="11.1111in" version="1.1" style="shape-rendering:geometricPrecision; text-rendering:geometricPrecision; image-rendering:optimizeQuality; fill-rule:evenodd; clip-rule:evenodd"
viewBox="0 0 15278 11111"
 xmlns:xlink="http://www.w3.org/1999/xlink">
 <defs>
  <style type="text/css">
   <![CDATA[
    .fil5 {fill:#292949;fill-rule:nonzero}
    .fil8 {fill:#3B3387;fill-rule:nonzero}
    .fil19 {fill:#414BAA;fill-rule:nonzero}
    .fil18 {fill:#474EBB;fill-rule:nonzero}
    .fil22 {fill:#4E4E4E;fill-rule:nonzero}
    .fil6 {fill:#5D66D3;fill-rule:nonzero}
    .fil12 {fill:#666666;fill-rule:nonzero}
    .fil20 {fill:#7F7F7F;fill-rule:nonzero}
    .fil16 {fill:#839BD1;fill-rule:nonzero}
    .fil13 {fill:#8CABEF;fill-rule:nonzero}
    .fil21 {fill:#8E8E8E;fill-rule:nonzero}
    .fil17 {fill:#9F9F9F;fill-rule:nonzero}
    .fil7 {fill:#A2A4A7;fill-rule:nonzero}
    .fil23 {fill:#A39372;fill-rule:nonzero}
    .fil14 {fill:#B0B0B0;fill-rule:nonzero}
    .fil10 {fill:#B5B7B8;fill-rule:nonzero}
    .fil4 {fill:#CCAF5D;fill-rule:nonzero}
    .fil2 {fill:#D67086;fill-rule:nonzero}
    .fil9 {fill:#DDC8AC;fill-rule:nonzero}
    .fil24 {fill:#DDDAE8;fill-rule:nonzero}
    .fil15 {fill:#DDDDDD;fill-rule:nonzero}
    .fil11 {fill:#E1CFB5;fill-rule:nonzero}
    .fil3 {fill:#EED5D5;fill-rule:nonzero}
    .fil1 {fill:#F6EAEA;fill-rule:nonzero}
    .fil0 {fill:white;fill-rule:nonzero}
   ]]>
  </style>
 </defs>
 <g id="Layer_x0020_1">
  <metadata id="CorelCorpID_0Corel-Layer"/>
  <polygon class="fil0" points="0,11111 15278,11111 15278,0 0,0 "/>
  <path class="fil1" d="M12641 10415c-83,0 -166,-3 -251,-11 -322,-30 -648,-45 -969,-88 -735,-98 -1471,-104 -2212,-104 -294,0 -588,-3 -882,-3 -428,0 -856,6 -1283,34 -666,45 -1334,52 -2002,52 -101,0 -202,0 -302,0 -6,0 -13,0 -19,0 -370,0 -738,23 -1107,39 -371,16 -731,43 -1100,43 -33,0 -67,0 -100,-1 -368,-5 -929,-112 -1192,-386 -156,-163 -135,-553 21,-710 68,-68 178,-122 268,-155 256,-93 517,-93 784,-95 3,0 7,0 10,0 185,0 377,37 554,89 161,47 325,64 489,93 134,24 277,35 419,35 92,0 184,-5 272,-14 238,-26 477,-37 716,-58 296,-25 586,-79 881,-108 148,-15 292,-51 439,-67 391,-43 782,-53 1174,-54 32,0 63,0 95,0 186,0 373,1 559,1 152,0 303,0 455,0 518,0 1036,5 1553,52 160,15 319,6 477,40 159,35 319,67 481,73 139,5 278,7 418,7 248,0 497,-6 744,-6 25,0 59,0 102,0 554,0 2483,25 2345,540 -53,198 -362,455 -536,538 -219,105 -459,167 -700,188 -203,18 -401,36 -602,36z"/>
  <path class="fil2" d="M1976 4147c292,-58 348,-371 354,-408 0,-3 0,-5 -1,-7l-19 -38 -67 -134 -67 -134 -19 -38c-1,-2 -3,-4 -5,-5 -34,-18 -318,-160 -539,40 -8,7 -3,21 8,22 49,3 147,11 192,33 10,5 8,21 -3,23 -65,15 -238,71 -326,242 -110,213 -80,238 -80,238l5 -2 -5 2c0,0 3,40 239,78 190,31 337,-74 388,-117 9,-7 23,0 21,11 -9,50 -61,133 -88,174 -6,9 2,21 13,19z"/>
  <path class="fil3" d="M2071 4000c207,-35 238,-272 240,-301 0,-2 0,-4 -1,-6l-67 -134 -67 -134c-1,-2 -2,-3 -4,-4 -25,-15 -233,-132 -385,13 -6,5 -2,16 6,17 35,4 106,13 139,32 8,4 6,16 -2,18 -46,10 -168,46 -226,174 -72,159 -49,180 -49,180 0,0 3,27 144,61 9,2 19,5 30,7 137,30 239,-46 275,-77 6,-5 16,1 15,9 -5,38 -40,100 -58,130 -4,7 2,16 10,15z"/>
  <path class="fil4" d="M2850 4222c267,-169 348,-468 368,-566l-666 133c3,0 5,-1 8,-1 0,2 1,4 1,6 -5,167 -105,403 -160,502 -66,118 127,130 450,-74z"/>
  <path class="fil5" d="M2337 3511c-1,-2 -2,-4 -3,-6l0 0c-97,-197 -94,-299 -88,-335 -39,38 -80,77 -122,117 0,0 -36,81 71,295 107,214 194,235 194,235 56,-9 110,-18 162,-27l4 -1 0 0 1 0c-34,-17 -119,-78 -219,-278z"/>
  <path class="fil5" d="M2850 4222c267,-169 348,-468 368,-566l-666 133c3,0 5,-1 8,-1 0,2 1,4 1,6 -5,167 -105,403 -160,502 -66,118 127,130 449,-74z"/>
  <path class="fil6" d="M3835 3365c61,-45 116,-90 167,-135 352,-314 455,-614 482,-718 -18,-17 -33,-36 -45,-59l0 0 -2 -3c-1,-2 -2,-3 -2,-4 -10,-19 -16,-39 -20,-59 -93,-37 -325,-108 -673,-70 -117,13 -247,38 -389,81 -229,69 -415,176 -601,319l-1 0 -321 286 -181 162 1 1 -3 3c-6,35 -10,131 77,313 4,9 9,19 14,28 100,200 186,261 219,278l662 -133 0 0 0 0 0 0c227,-63 424,-149 617,-291z"/>
  <path class="fil5" d="M4650 2402c34,-32 45,-58 38,-71l-1 -2 0 0c-6,-9 -21,-14 -45,-13 -10,0 -21,1 -33,3 -45,8 -122,35 -192,70l-2 -1c4,20 10,40 20,59 1,2 2,3 3,4 12,24 28,44 47,61l0 0 0 0 0 -1c61,-32 120,-70 155,-100 4,-3 8,-7 11,-10z"/>
  <path class="fil2" d="M3869 2732c-81,-148 -266,-206 -418,-130 -156,78 -220,268 -142,423 78,156 268,218 424,140 29,-15 55,-33 78,-55 98,-93 128,-242 65,-369 -2,-4 -4,-6 -6,-10l0 0z"/>
  <polygon class="fil7" points="4436,2452 4436,2452 4435,2451 4434,2450 4434,2449 4436,2448 4437,2450 4438,2452 "/>
  <path class="fil5" d="M3516 4286c0,0 94,47 111,296 16,249 74,401 74,401 0,0 -74,56 -143,32 -68,-24 -93,-27 -92,-129 1,-103 -58,-578 -58,-578l108 -22z"/>
  <path class="fil5" d="M3336 4411c97,5 188,73 219,165 39,-58 49,-135 25,-200 -24,-66 -82,-118 -149,-136 -50,43 -82,106 -87,171l-7 0z"/>
  <polygon class="fil2" points="3219,4999 2917,5110 2697,5310 2693,4416 2419,4458 2328,5490 2620,5737 3208,5537 "/>
  <polygon class="fil5" points="2831,9492 2821,9570 2961,9671 3045,9604 2980,9515 2840,9414 "/>
  <polygon class="fil8" points="2891,7099 2861,7336 3055,8158 2826,9465 2970,9519 3384,8247 3454,7875 3470,7086 "/>
  <polygon class="fil8" points="4004,7390 3646,9582 3507,9579 3515,8168 3285,7173 "/>
  <polygon class="fil5" points="3508,9561 3506,9640 3654,9723 3732,9646 3658,9565 "/>
  <path class="fil2" d="M2905 6807c138,-797 109,-1381 119,-1541 10,-160 121,-240 122,-240 48,-10 91,-41 140,-52 331,-77 504,184 620,464 143,345 262,701 357,1063 83,318 166,639 196,968 12,136 22,264 -124,321 -233,90 -492,81 -736,106 -280,28 -561,47 -843,53 -147,3 11,-345 149,-1142z"/>
  <polygon class="fil9" points="2451,4457 2330,4331 2378,4115 2496,4118 2527,4307 2586,4345 2584,4436 "/>
  <polygon class="fil2" points="3445,4962 3759,5025 4387,5663 5136,5653 5173,5884 4295,6018 3585,5539 "/>
  <polygon class="fil0" points="3522,4980 3560,5832 3143,5013 3271,4971 3363,4946 "/>
  <polygon class="fil9" points="5143,5710 5283,5628 5459,5676 5456,5771 5160,5820 "/>
  <path class="fil9" d="M3549 4492c-103,-239 -404,-126 -448,96 -25,126 37,348 188,353 7,22 19,62 39,73 22,12 76,-16 97,-26 6,-3 12,-6 16,-12 4,-7 2,-22 -2,-39 16,-5 32,-12 48,-21 67,-40 104,-119 110,-197 5,-78 -18,-155 -48,-227z"/>
  <path class="fil5" d="M3424 4241c0,0 60,128 -104,205 -164,76 -246,236 -185,372 62,136 213,213 154,265 -59,53 -315,70 -315,70 0,0 -263,-470 -109,-733 154,-263 445,-336 559,-180z"/>
  <polygon class="fil5" points="4773,9441 4760,9540 4945,9663 5056,9578 4970,9466 4786,9343 "/>
  <polygon class="fil10" points="4767,9408 4909,8154 4738,6749 4776,6450 5539,6421 5567,6908 5439,8155 4957,9472 "/>
  <polygon class="fil5" points="5381,5053 5772,5124 6677,5339 6619,5642 5695,5628 "/>
  <polygon class="fil10" points="6099,6562 6101,7828 5846,9458 5663,9456 5562,7949 5326,6440 "/>
  <polygon class="fil5" points="5663,9533 5861,9634 5961,9536 5863,9436 5664,9434 "/>
  <path class="fil5" d="M4603 7088c-3,-55 -4,-101 -5,-117 -9,-147 -9,-294 -3,-442 5,-132 -3,-458 8,-589 9,-109 50,-381 88,-485 94,-257 56,-277 557,-394 219,-52 284,82 480,226 19,14 26,108 33,132 11,43 23,86 36,128 10,33 21,67 33,100l0 0c0,0 213,681 327,819 114,139 340,326 3,483 -60,25 -121,50 -184,66 0,0 -288,-7 -434,7 -135,13 -269,38 -400,73 -87,23 -176,52 -252,101 -72,46 -122,109 -195,157 -7,5 -15,9 -23,9 -45,-2 -60,-157 -67,-273z"/>
  <path class="fil11" d="M5249 5121c-20,20 -76,44 -144,42 -14,-1 -26,-9 -30,-22 -12,-36 -22,-74 -29,-112 -50,0 -110,-6 -134,-50 -8,-14 -10,-30 -13,-46 -10,-65 -21,-129 -31,-194 -4,-22 -7,-45 -2,-67 9,-39 44,-66 78,-85 89,-49 199,-64 293,-27 25,10 50,24 66,45 26,32 30,77 33,118 3,38 6,77 9,115 3,44 4,95 -30,124 -18,15 -43,21 -58,40 -26,32 -4,80 -10,121z"/>
  <path class="fil5" d="M5584 4325c4,-18 9,-37 15,-54 14,-38 35,-74 43,-114 8,-40 -1,-87 -34,-110 -22,-15 -50,-16 -76,-15 -86,4 -172,31 -244,79 -69,45 -125,100 -211,98 -81,-2 -128,26 -194,79 -71,57 -177,101 -236,166 -25,27 -40,62 -49,98 -31,124 17,264 117,344 23,18 47,33 72,46 52,28 115,64 173,61 -15,-47 -108,-180 -86,-231 36,-81 173,-104 249,-113 83,-10 171,21 251,6 58,-11 119,-62 156,-106 46,-55 37,-167 52,-234z"/>
  <path class="fil12" d="M7567 7255l-14 257c-4,83 -74,147 -155,143l-658 -35c-81,-4 -144,-75 -139,-159l14 -257 952 50z"/>
  <path class="fil13" d="M5678 3699c48,-903 800,-1597 1681,-1551 881,46 1556,816 1508,1719 -17,321 -123,615 -292,860l0 0c-484,739 -620,1372 -620,1372l-802 -42 -802 -42c0,0 -69,-644 -472,-1429l0 0c-142,-261 -217,-565 -200,-886z"/>
  <path class="fil14" d="M7974 6100l-58 1090c-2,46 -40,81 -83,78l-1485 -78c-43,-2 -77,-41 -74,-87l58 -1090 1642 87z"/>
  <path class="fil15" d="M7955 6099l-802 -42 -75 -4 75 4 802 42c0,0 0,-1 1,-4 0,0 0,0 0,0 -1,3 -1,4 -1,4z"/>
  <path class="fil16" d="M7955 6099l-802 -42 -75 -4 -728 -38c0,-2 -69,-645 -472,-1429l0 0 0 0c-129,-236 -202,-508 -202,-796 0,-30 1,-60 2,-90 6,-105 21,-206 44,-305 362,833 1083,2129 2233,2700 -1,3 -1,4 -1,4z"/>
  <polygon class="fil17" points="7078,6053 6350,6014 6350,6014 6350,6014 "/>
  <path class="fil16" d="M8377 4690c129,-203 209,-443 223,-702 42,-788 -548,-1460 -1317,-1501 -24,-1 -49,-2 -73,-2 -421,0 -802,193 -1060,501 251,-396 685,-654 1172,-654 24,0 48,1 73,2 769,41 1358,712 1317,1501 -17,328 -141,623 -335,855z"/>
  <polygon class="fil18" points="7463,6073 7766,3991 7485,4206 7270,3812 7013,4169 6760,3936 6843,6040 6760,6036 6670,3740 7001,4044 7280,3657 7511,4081 7877,3801 7545,6078 "/>
  <path class="fil19" d="M7575 5870l-30 208 -82 -4 37 -257c25,18 50,36 75,53z"/>
  <path class="fil19" d="M6809 5174l34 867 -82 -4 -38 -964c28,34 57,68 86,102z"/>
  <polygon class="fil20" points="6307,6486 7949,6572 7959,6371 6318,6284 "/>
  <polygon class="fil20" points="6284,6915 7926,7002 7937,6801 6295,6714 "/>
  <path class="fil21" d="M7037 6753l-742 -39 12 -229 458 24c91,92 182,173 272,244z"/>
  <path class="fil21" d="M6318 6284l14 -271 26 1c70,102 142,196 214,283l-254 -13z"/>
  <path class="fil21" d="M7833 7269l-1485 -78c-43,-2 -77,-41 -74,-87l10 -188 1072 57c211,123 404,196 556,239 -11,35 -42,60 -79,58z"/>
  <path class="fil12" d="M6764 6510l-458 -24 11 -201 254 13c64,76 128,147 193,212z"/>
  <path class="fil12" d="M7356 6972l-1072 -57 11 -201 742 39c109,87 217,159 320,219z"/>
  <path class="fil22" d="M6607 7360c176,193 527,267 644,286l-510 -27c-81,-4 -144,-75 -139,-159l5 -101z"/>
  <path class="fil18" d="M7351 1908l-43 -1c-23,-1 -42,-20 -41,-43l12 -434c1,-23 20,-42 43,-41l43 1c23,1 42,20 41,43l-12 434c-1,23 -20,42 -43,41z"/>
  <path class="fil18" d="M6641 1984l-42 25c-19,11 -43,5 -54,-14l-225 -378c-11,-19 -5,-43 14,-54l42 -25c19,-11 43,-5 54,14l225 378c11,19 5,43 -14,54z"/>
  <path class="fil18" d="M8034 2026l34 23c20,13 47,8 60,-12l241 -358c13,-20 8,-47 -12,-60l-34 -23c-20,-13 -47,-8 -60,12l-241 358c-13,20 -8,47 12,60z"/>
  <path class="fil11" d="M6414 5888l226 12 132 -152 -72 -60 -151 53 -42 -29 -154 59c0,0 65,117 62,117z"/>
  <polygon class="fil5" points="5010,5255 5760,5893 6402,5745 6499,5930 5749,6274 5498,6196 4852,5564 "/>
  <path class="fil2" d="M13285 3025c-5,6 -13,7 -19,2 -65,-53 -147,-77 -231,-68 -84,9 -159,50 -212,115 -53,65 -77,147 -68,231 1,7 -5,14 -12,15l-1 0c-7,0 -12,-5 -13,-12 -10,-91 17,-179 74,-250 57,-71 139,-115 229,-125 91,-10 180,17 250,74 6,5 7,13 2,19zm-1105 288c-1,1 -3,1 -4,1 -5,0 -11,-3 -13,-9 -51,-146 -210,-224 -356,-176l-2 1 -3 1c-7,2 -14,-1 -17,-8 -1,-4 -1,-8 1,-11 -27,-115 -112,-210 -225,-249 -181,-62 -378,34 -440,215 -2,7 -10,11 -17,8 -7,-2 -11,-10 -8,-17 67,-194 279,-298 474,-231 119,41 210,141 241,263 157,-44 323,41 377,197 2,7 -1,15 -8,17zm1473 -670c1,-246 -199,-447 -445,-447 -33,0 -83,18 -114,0 -26,-15 -35,-50 -55,-71 -24,-25 -51,-48 -81,-66 -60,-37 -130,-56 -200,-56 -57,0 -112,12 -161,35l-1 0 0 0c-3,1 -6,3 -9,4l0 0c-40,17 -185,92 -196,257 85,-3 171,30 233,97 63,-62 153,-89 240,-71 69,14 129,55 168,114 39,59 53,130 38,200 -1,6 -7,11 -13,11l-3 0c-7,-1 -12,-9 -10,-16 27,-129 -57,-256 -186,-282 -82,-17 -169,11 -225,73 -5,5 -13,6 -19,1l-2 -2c-99,-117 -274,-131 -391,-32 -6,5 -14,4 -19,-2 -5,-6 -4,-14 2,-19 47,-40 103,-63 160,-70 10,-168 146,-251 202,-278 -92,-76 -210,-123 -339,-123 -191,-1 -358,99 -453,249 -32,-7 -65,-11 -99,-11 -167,0 -324,91 -406,236 -21,37 -34,75 -46,115 -2,5 -3,10 -5,15 96,-36 230,-62 376,-22 7,2 11,9 9,16 -2,7 -9,11 -16,9 -306,-84 -558,133 -561,135 -2,2 -4,3 -7,3 -33,26 -63,55 -89,89 -77,101 -118,226 -119,353 -1,326 263,591 589,592 37,0 76,-21 111,-9 -19,-53 -30,-119 -8,-189 2,-7 10,-11 17,-9 7,2 11,10 9,17 -45,144 67,279 68,280 1,2 2,4 3,5 20,24 41,44 69,61 77,47 167,73 258,74 77,0 149,-17 214,-48l3 -2c198,-111 228,-330 228,-333 1,-7 8,-12 15,-12 7,1 12,8 12,15 -1,8 -25,188 -178,310 92,106 227,173 378,173 74,0 150,-21 220,-48 73,-29 127,80 155,127 41,69 63,154 122,212 84,83 176,9 186,-93 6,-58 4,-117 -3,-175 -3,-29 -9,-61 4,-89 15,-32 45,-27 76,-35 59,-14 115,-41 163,-79 97,-78 154,-197 154,-321 0,-48 -8,-94 -23,-137 -20,9 -61,23 -118,27 -9,1 -18,1 -28,1 -73,0 -175,-20 -288,-100 -6,-4 -7,-13 -3,-19 4,-6 13,-7 19,-3 232,164 418,65 420,64 1,-1 3,-1 4,-1 132,-62 223,-195 224,-351 0,-157 -92,-292 -226,-354z"/>
  <polygon class="fil23" points="10382,5204 10241,5108 10279,5046 10390,5090 10394,5052 10505,5149 10474,5219 "/>
  <polygon class="fil8" points="11757,4997 11199,5359 10479,5104 10424,5245 11208,5735 11990,5446 "/>
  <polygon class="fil5" points="11768,9449 11768,9529 11564,9632 11461,9529 11564,9427 11577,9427 11580,9449 "/>
  <polygon class="fil5" points="11768,9449 11580,9449 11577,9427 11768,9427 "/>
  <path class="fil8" d="M12053 4941c220,13 446,129 509,343 5,18 9,36 11,54 9,110 -25,191 7,302 28,96 53,194 71,292 27,142 51,284 70,425 21,156 37,312 41,467 0,17 4,65 6,122 4,120 1,280 -49,286 -9,1 -19,-3 -27,-7 -65,-32 -116,-73 -173,-109 -20,-13 -41,-25 -64,-35 -45,-21 -93,-38 -143,-51 83,4 94,-11 94,-11 0,0 -75,-301 -128,-563 -27,-135 -48,-260 -50,-327 -6,-203 -32,-875 -32,-875l-126 -257 -23 0c2,0 3,0 5,-1 -2,-22 -1,-40 2,-56z"/>
  <path class="fil8" d="M11117 7099c13,-133 26,-266 43,-399 33,-265 77,-529 152,-785 29,-98 62,-195 95,-291 40,-118 81,-235 121,-353 50,-146 135,-249 283,-300 26,-9 54,-16 83,-21 1,3 1,6 2,9 2,14 6,30 15,40l-97 1c0,0 -275,960 -285,1125 -4,63 -17,200 -31,345 -22,229 -49,476 -49,476 0,0 121,3 295,16 -13,0 -26,-1 -39,-1 -121,-1 -247,50 -363,84 -8,2 -17,5 -25,7 -47,13 -86,47 -125,74 -58,40 -84,56 -76,-26z"/>
  <path class="fil8" d="M11343 7010c116,-33 242,-85 363,-84 13,0 26,0 39,1 11,1 22,2 33,3 81,6 173,15 268,26 5,1 9,1 14,2 122,26 201,36 253,39 49,13 98,29 143,51 23,11 43,23 64,35l1 130 -233 2213 -191 0 0 23 -1 0 -210 -1485 -1 -8 -115 1493 -1 0 0 -23 -192 0 -243 -1663 9 -754z"/>
  <polygon class="fil5" points="12287,9427 12301,9427 12403,9529 12301,9632 12096,9529 12096,9449 12284,9449 "/>
  <polygon class="fil5" points="12287,9427 12284,9449 12096,9449 12096,9427 "/>
  <path class="fil0" d="M11450 6945c0,0 121,3 295,16 11,1 22,2 33,3 81,6 173,15 268,26 5,1 9,1 14,2 122,26 201,36 253,39 83,4 94,-11 94,-11 0,0 -75,-301 -128,-563 -27,-135 -48,-260 -50,-327 -6,-203 -32,-875 -32,-875l-126 -257 -23 0c-32,4 -64,8 -97,11 -8,1 -17,2 -25,-1 -4,-1 -7,-3 -10,-6l-3 -3 -97 1c0,0 -275,960 -285,1125 -4,63 -17,200 -31,345 -22,229 -49,476 -49,476z"/>
  <path class="fil11" d="M11740 4644c6,-26 -6,-52 -12,-78 -1,-7 -2,-13 -1,-20 46,-8 93,-25 127,-40 71,-31 209,-64 282,-27 58,29 40,121 37,179 -1,15 -2,30 2,45 4,15 13,25 19,38 -6,23 -17,44 -34,64 -47,53 -94,78 -106,138 -3,16 -4,34 -2,56 -2,0 -3,0 -5,1 -32,4 -64,8 -97,11 -8,1 -17,2 -25,-1 -4,-1 -7,-3 -10,-6l-3 -3c-9,-10 -13,-26 -15,-40 0,-3 -1,-6 -2,-9 -13,-54 -72,-79 -105,-127 -37,-54 -56,-118 -64,-182l0 -3c5,3 10,5 15,7z"/>
  <path class="fil5" d="M11509 4337c-2,67 48,175 110,202 12,5 25,8 39,10 13,36 35,71 67,89 5,3 10,5 15,7 6,-26 -6,-52 -12,-78 -1,-7 -2,-13 -1,-20 46,-8 93,-25 127,-40 71,-31 209,-64 282,-27 58,29 40,121 37,179 -1,15 -2,30 2,45 4,15 13,25 19,38 2,4 4,9 4,14 48,-21 76,-75 103,-119 13,-22 26,-45 36,-69 44,-111 28,-260 -40,-366 -20,-31 -43,-58 -72,-75 -67,-41 -161,-45 -233,-73 -102,-40 -154,-4 -250,27 -38,12 -83,23 -103,59 -11,20 -13,45 -24,65 -15,26 -42,39 -66,56 -28,19 -40,47 -41,78z"/>
  <polygon class="fil11" points="13314,4282 13339,4113 13267,4100 13225,4211 13194,4189 13190,4336 13263,4360 "/>
  <polygon class="fil8" points="12233,5156 12877,4989 13175,4286 13316,4341 13148,5250 12406,5632 "/>
  <polygon class="fil5" points="10688,9475 10697,9564 10530,9670 10432,9591 10512,9493 10679,9387 "/>
  <polygon class="fil5" points="10695,6777 10722,7045 10482,8246 10695,9446 10523,9499 9967,8072 9937,7636 10012,6732 "/>
  <polygon class="fil5" points="9392,6868 9387,8003 9610,9465 9775,9464 9870,8113 10086,6761 "/>
  <polygon class="fil5" points="9774,9533 9597,9623 9508,9535 9596,9446 9774,9444 "/>
  <path class="fil24" d="M9254 6701c119,-368 131,-753 166,-1136 10,-113 21,-228 68,-332 54,-119 143,-181 247,-215 132,-44 289,-41 426,-49 131,-4 246,487 379,725 82,146 166,275 221,434 53,153 104,308 134,467 46,240 165,407 52,489 -10,3 -20,7 -30,10 -186,67 -378,116 -574,142 -174,23 -350,27 -525,10 -239,-24 -470,-57 -681,-182 39,-121 78,-241 117,-362z"/>
  <polygon class="fil18" points="8346,4661 9082,4293 10441,7011 9705,7379 "/>
  <polygon class="fil11" points="9082,4293 8385,3820 8346,4661 "/>
  <polygon class="fil5" points="8647,3998 8385,3820 8371,4136 "/>
  <path class="fil10" d="M9987 7697l546 -273c52,-26 74,-90 47,-142l-139 -271 -736 368 139 271c26,52 90,74 142,47z"/>
  <polygon class="fil0" points="9705,7379 10441,7011 10372,6874 9634,7236 "/>
  <polygon class="fil23" points="10202,6459 10068,6578 10015,6523 10089,6422 10051,6407 10178,6320 10241,6369 "/>
  <polygon class="fil24" points="10237,5462 10467,5737 10125,6335 10255,6427 10956,5758 10411,4985 "/>
  <path class="fil23" d="M10225 4604c-74,-225 -402,-303 -478,-42 -23,78 -37,162 -21,242 16,80 65,157 139,190l1 1c-3,21 -6,42 -9,62 -1,4 -1,9 1,13 3,4 9,5 14,6 25,4 50,7 75,11 12,2 25,4 37,0 26,-8 37,-39 38,-67 0,-7 0,-13 0,-20 147,-50 252,-250 203,-397z"/>
  <path class="fil5" d="M9825 4220c-60,-9 -111,49 -166,80 -46,25 -98,32 -146,53 -48,21 -95,65 -96,120 -48,-25 -101,-51 -155,-41 -54,10 -105,75 -83,129 19,48 82,59 102,106 33,74 -56,190 5,239 15,12 34,15 49,27 18,15 23,41 31,64 36,105 142,174 246,160 65,-30 117,-93 140,-165 28,-87 -18,-117 -26,-199 -9,-89 20,-183 76,-253 36,-45 89,-84 144,-89 22,-2 15,17 41,-1 11,-7 26,-36 29,-49 -60,-49 -111,-170 -190,-182z"/>
  <path class="fil5" d="M10474 4336c31,9 65,7 94,20 44,19 42,65 54,105 14,44 34,104 63,138 21,25 50,39 76,58 26,19 49,47 49,82 -1,33 -22,62 -26,95 -4,49 5,74 -11,123 -8,26 -16,53 -36,70 -25,23 -62,23 -93,17 -32,-5 -65,-14 -96,-4 -68,23 -55,91 -73,149 -27,88 -129,139 -207,107 -66,-26 -104,-103 -101,-178 1,-38 17,-73 18,-111 1,-36 -20,-87 14,-116 8,-7 18,-11 26,-19 6,-7 9,-15 11,-24 7,-30 0,-63 -17,-86 -13,-17 -31,-29 -39,-49 -9,-23 -2,-50 0,-75 4,-61 -30,-121 -81,-145 -34,-16 -64,-25 -93,-48 -4,-4 -71,-63 -73,-50 3,-22 16,-42 29,-60 22,-29 46,-58 76,-75 98,-57 103,75 182,58 19,-4 33,-22 51,-32 32,-20 72,-13 105,2 33,15 64,37 98,46z"/>
  <polygon class="fil23" points="9174,6393 9271,6372 9393,6465 9301,6572 9209,6497 "/>
  <path class="fil5" d="M1745 2987c111,15 357,75 495,170 2,3 5,5 7,8l502 -448c-87,-42 -378,-160 -676,-46 -356,136 -462,298 -328,316z"/>
 </g>
</svg>
