<svg height="512pt" viewBox="0 0 512 512" width="512pt" xmlns="http://www.w3.org/2000/svg"><path d="m512 105v75l-34.5 30h-390.398438l-87.101562-30v-75c0-24.902344 20.097656-45 45-45h46.902344l18.898437-13.199219 11.398438 13.199219h89.703125l21.597656-15.902344 8.699219 15.902344h89.703125l15.898437-17.699219 14.398438 17.699219h104.800781c24.902344 0 45 20.097656 45 45zm0 0" fill="#ff9f00"/><path d="m512 105v75l-34.5 30h-221.5v-150h75.902344l15.898437-17.699219 14.398438 17.699219h104.800781c24.902344 0 45 20.097656 45 45zm0 0" fill="#ff7816"/><path d="m181 75c0 42.898438-19.5 75-45 75-8.402344 0-15-6.601562-15-15 0-8.402344 6.597656-15 15-15 3.601562 0 15-15.902344 15-45 0-5.398438-.300781-10.5-1.199219-15-2.699219-19.5-10.800781-30-13.800781-30s-11.101562 10.5-13.800781 30h-30.296875c3.898437-35.101562 21.597656-60 44.097656-60s40.199219 24.898438 44.097656 60c.601563 4.800781.902344 9.898438.902344 15zm0 0" fill="#596c76"/><path d="m301 75c0 42.898438-19.5 75-45 75-8.402344 0-15-6.601562-15-15 0-8.402344 6.597656-15 15-15 3.601562 0 15-15.902344 15-45 0-5.398438-.300781-10.5-1.199219-15-2.699219-19.5-10.800781-30-13.800781-30s-11.101562 10.5-13.800781 30h-30.296875c3.898437-35.101562 21.597656-60 44.097656-60s40.199219 24.898438 44.097656 60c.601563 4.800781.902344 9.898438.902344 15zm0 0" fill="#596c76"/><path d="m421 75c0 42.898438-19.5 75-45 75-8.402344 0-15-6.601562-15-15 0-8.402344 6.597656-15 15-15 3.601562 0 15-15.902344 15-45 0-5.398438-.300781-10.5-1.199219-15-2.699219-19.5-10.800781-30-13.800781-30s-11.101562 10.5-13.800781 30h-30.296875c3.898437-35.101562 21.597656-60 44.097656-60s40.199219 24.898438 44.097656 60c.601563 4.800781.902344 9.898438.902344 15zm0 0" fill="#465a61"/><path d="m301 75c0 42.898438-19.5 75-45 75v-30c3.601562 0 15-15.902344 15-45 0-5.398438-.300781-10.5-1.199219-15-2.699219-19.5-10.800781-30-13.800781-30v-30c22.5 0 40.199219 24.898438 44.097656 60 .601563 4.800781.902344 9.898438.902344 15zm0 0" fill="#465a61"/><path d="m0 180v287c0 24.898438 20.097656 45 45 45h422c24.902344 0 45-20.101562 45-45v-287zm0 0" fill="#deecf1"/><path d="m512 180v287c0 24.898438-20.097656 45-45 45h-211v-332zm0 0" fill="#c6e2e7"/><path d="m76 256h360v181h-360zm0 0" fill="#deecf1"/><path d="m436 241h-360c-8.402344 0-15 6.597656-15 15v181c0 8.398438 6.597656 15 15 15h360c8.402344 0 15-6.601562 15-15v-181c0-8.402344-6.597656-15-15-15zm-285 181h-60v-61h60zm0-91h-60v-60h60zm90 91h-60v-61h60zm0-91h-60v-60h60zm90 91h-60v-61h60zm0-91h-60v-60h60zm90 91h-60v-61h60zm0-91h-60v-60h60zm0 0" fill="#a8d3d8"/><path d="m256 256h180v181h-180zm0 0" fill="#c6e2e7"/><path d="m436 241h-180v211h180c8.402344 0 15-6.601562 15-15v-181c0-8.402344-6.597656-15-15-15zm-105 181h-60v-61h60zm0-91h-60v-60h60zm90 91h-60v-61h60zm0-91h-60v-60h60zm0 0" fill="#8ebac5"/></svg>