<svg height="512pt" viewBox="0 -46 512 512" width="512pt" xmlns="http://www.w3.org/2000/svg"><path d="m361 195v210c0 8.398438-6.597656 15-15 15h-331c-8.402344 0-15-6.601562-15-15v-210c0-3.898438 1.5-7.5 3.898438-9.902344l177.101562 66.300782 5.398438 2.101562 170.703124-68.402344c2.398438 2.402344 3.898438 6.003906 3.898438 9.902344zm0 0" fill="#fdbf00"/><path d="m361 195v210c0 8.398438-6.597656 15-15 15h-165v-168.601562l5.398438 2.101562 170.703124-68.402344c2.398438 2.402344 3.898438 6.003906 3.898438 9.902344zm0 0" fill="#ff9f00"/><path d="m70.902344 355.09375c-5.566406-6.125-5.113282-15.617188 1.011718-21.195312l43.988282-40.007813c6.152344-5.535156 15.644531-5.097656 21.195312 1.011719 5.566406 6.125 5.113282 15.617187-1.011718 21.195312l-43.988282 40.007813c-6.117187 5.554687-15.613281 5.125-21.195312-1.011719zm0 0" fill="#ff9f00"/><path d="m269.902344 356.105469-43.992188-40.007813c-6.121094-5.578125-6.574218-15.070312-1.007812-21.195312 5.59375-6.105469 15.085937-6.546875 21.195312-1.011719l43.988282 40.007813c6.125 5.578124 6.578124 15.070312 1.011718 21.195312-5.582031 6.136719-15.078125 6.566406-21.195312 1.011719zm0 0" fill="#ff7816"/><path d="m357.101562 184.800781-165.902343 171.300781c-3 2.699219-6.597657 3.898438-10.199219 3.898438s-7.199219-1.199219-10.199219-3.898438l-166.902343-171.300781c3-3 6.902343-4.800781 11.101562-4.800781h331c4.199219 0 8.101562 1.800781 11.101562 4.800781zm0 0" fill="#ffd400"/><path d="m357.101562 184.800781-165.902343 171.300781c-3 2.699219-6.597657 3.898438-10.199219 3.898438v-180h165c4.199219 0 8.101562 1.800781 11.101562 4.800781zm0 0" fill="#fdbf00"/><g fill="#a8d3d8"><path d="m497 300h-61c-8.289062 0-15-6.710938-15-15s6.710938-15 15-15h61c8.289062 0 15 6.710938 15 15s-6.710938 15-15 15zm0 0"/><path d="m467 360h-61c-8.289062 0-15-6.710938-15-15s6.710938-15 15-15h61c8.289062 0 15 6.710938 15 15s-6.710938 15-15 15zm0 0"/><path d="m497 420h-61c-8.289062 0-15-6.710938-15-15s6.710938-15 15-15h61c8.289062 0 15 6.710938 15 15s-6.710938 15-15 15zm0 0"/></g><path d="m76 30h-61c-8.289062 0-15-6.710938-15-15s6.710938-15 15-15h61c8.289062 0 15 6.710938 15 15s-6.710938 15-15 15zm0 0" fill="#c6e2e7"/><path d="m106 90h-61c-8.289062 0-15-6.710938-15-15s6.710938-15 15-15h61c8.289062 0 15 6.710938 15 15s-6.710938 15-15 15zm0 0" fill="#c6e2e7"/><path d="m76 150h-61c-8.289062 0-15-6.710938-15-15s6.710938-15 15-15h61c8.289062 0 15 6.710938 15 15s-6.710938 15-15 15zm0 0" fill="#c6e2e7"/><path d="m512 15v210c0 8.398438-6.597656 15-15 15h-331c-8.402344 0-15-6.601562-15-15v-210c0-3.898438 1.5-7.5 3.898438-9.902344l176.101562 66.300782 5.398438 2.101562 171.703124-68.402344c2.398438 2.402344 3.898438 6.003906 3.898438 9.902344zm0 0" fill="#fdbf00"/><path d="m512 15v210c0 8.398438-6.597656 15-15 15h-166v-168.601562l5.398438 2.101562 171.703124-68.402344c2.398438 2.402344 3.898438 6.003906 3.898438 9.902344zm0 0" fill="#ff9f00"/><path d="m220.902344 175.09375c-5.566406-6.125-5.113282-15.617188 1.011718-21.195312l43.988282-40.007813c6.152344-5.535156 15.644531-5.097656 21.195312 1.011719 5.566406 6.125 5.113282 15.617187-1.011718 21.195312l-43.988282 40.007813c-6.117187 5.554687-15.613281 5.125-21.195312-1.011719zm0 0" fill="#ff9f00"/><path d="m419.902344 176.105469-43.992188-40.007813c-6.121094-5.578125-6.574218-15.070312-1.007812-21.195312 5.59375-6.105469 15.085937-6.546875 21.195312-1.011719l43.988282 40.007813c6.125 5.578124 6.578124 15.070312 1.011718 21.195312-5.582031 6.136719-15.078125 6.566406-21.195312 1.011719zm0 0" fill="#ff7816"/><path d="m508.101562 4.800781-166.902343 171.300781c-3 2.699219-6.597657 3.898438-10.199219 3.898438s-7.199219-1.199219-10.199219-3.898438l-165.902343-171.300781c3-3 6.902343-4.800781 11.101562-4.800781h331c4.199219 0 8.101562 1.800781 11.101562 4.800781zm0 0" fill="#ffd400"/><path d="m508.101562 4.800781-166.902343 171.300781c-3 2.699219-6.597657 3.898438-10.199219 3.898438v-180h166c4.199219 0 8.101562 1.800781 11.101562 4.800781zm0 0" fill="#fdbf00"/></svg>