<svg height="512pt" viewBox="-91 0 512 512" width="512pt" xmlns="http://www.w3.org/2000/svg"><path d="m330 45v347l-39 30h-258.601562l-32.398438-30v-347c0-24.902344 20.097656-45 45-45h240c24.902344 0 45 20.097656 45 45zm0 0" fill="#465a61"/><path d="m330 45v347l-39 30h-126v-422h120c24.902344 0 45 20.097656 45 45zm0 0" fill="#3b4a51"/><path d="m300 45v347h-270v-347c0-8.402344 6.597656-15 15-15h240c8.402344 0 15 6.597656 15 15zm0 0" fill="#c6e2e7"/><path d="m0 392v75c0 24.898438 20.097656 45 45 45h240c24.902344 0 45-20.101562 45-45v-75zm0 0" fill="#697c86"/><path d="m330 392v75c0 24.898438-20.097656 45-45 45h-120v-120zm0 0" fill="#596c76"/><path d="m300 45v347h-135v-362h120c8.402344 0 15 6.597656 15 15zm0 0" fill="#a8d3d8"/><path d="m195 75c0 8.398438-6.597656 15-15 15h-30c-8.402344 0-15-6.601562-15-15 0-8.402344 6.597656-15 15-15h30c8.402344 0 15 6.597656 15 15zm0 0" fill="#465a61"/><path d="m210 270v23.398438c0 24.902343-20.097656 45-44.699219 45h-.300781c-3.601562 0-7.5-.597657-10.800781-1.5-20.101563-4.796876-34.199219-22.800782-34.199219-43.5v-38.398438c0-8.402344 6.597656-15 15-15s15 6.597656 15 15v38.398438c0 6.902343 4.800781 12.902343 11.398438 14.402343 1.199218.296875 2.402343.597657 3.601562.597657 7.5-.300782 15-6.898438 15-15v-23.398438c0-8.402344 6.597656-15 15-15s15 6.597656 15 15zm0 0" fill="#465a61"/><path d="m180 90h-15v-30h15c8.402344 0 15 6.597656 15 15 0 8.398438-6.597656 15-15 15zm0 0" fill="#3b4a51"/><path d="m210 270v23.398438c0 24.902343-20.097656 45-44.699219 45h-.300781v-30c7.5-.300782 15-6.898438 15-15v-23.398438c0-8.402344 6.597656-15 15-15s15 6.597656 15 15zm0 0" fill="#3b4a51"/><path d="m251.398438 150.597656v148.800782l-86.398438-19.199219-45-10.199219-22.5-57.601562 22.5-32.398438 45-10.199219zm0 0" fill="#e63950"/><path d="m252.804688 299.398438-86.398438-19.199219v-110.398438l86.398438-19.203125zm0 0" fill="#cc2e43"/><g fill="#465a61"><path d="m120 180h-45c-8.289062 0-15 6.710938-15 15v60c0 8.289062 6.710938 15 15 15h45zm0 0"/><path d="m255 330c-8.289062 0-15-6.710938-15-15v-180c0-8.289062 6.710938-15 15-15s15 6.710938 15 15v180c0 8.289062-6.710938 15-15 15zm0 0"/><path d="m195 452c0 8.398438-6.597656 15-15 15h-30c-8.402344 0-15-6.601562-15-15 0-8.402344 6.597656-15 15-15h30c8.402344 0 15 6.597656 15 15zm0 0"/></g><path d="m195 452c0 8.398438-6.597656 15-15 15h-15v-30h15c8.402344 0 15 6.597656 15 15zm0 0" fill="#3b4a51"/></svg>