<svg height="512pt" viewBox="-31 0 512 512" width="512pt" xmlns="http://www.w3.org/2000/svg"><path d="m360 195v121c0 41.398438-33.601562 75-75 75s-75-33.601562-75-75v-45c0-33-27-60-60-60s-60 27-60 60v15c0 8.398438-6.597656 15-15 15s-15-6.601562-15-15v-15c0-18.300781 5.699219-35.398438 15-49.800781 16.199219-24 43.800781-40.199219 75-40.199219 49.5 0 90 40.5 90 90v45c0 24.898438 20.097656 45 45 45s45-20.101562 45-45v-121c0-8.402344 6.597656-15 15-15s15 6.597656 15 15zm0 0" fill="#465a61"/><path d="m360 195v121c0 41.398438-33.601562 75-75 75s-75-33.601562-75-75v-45c0-33-27-60-60-60s-60 27-60 60v15c0 8.398438-6.597656 15-15 15v-79.800781c16.199219-24 43.800781-40.199219 75-40.199219 49.5 0 90 40.5 90 90v45c0 24.898438 20.097656 45 45 45s45-20.101562 45-45v-121c0-8.402344 6.597656-15 15-15s15 6.597656 15 15zm0 0" fill="#3b4a51"/><path d="m75 271c-41.398438 0-75 33.601562-75 75v91c0 41.398438 33.601562 75 75 75s75-33.601562 75-75v-91c0-41.398438-33.601562-75-75-75zm0 0" fill="#c6e2e7"/><path d="m150 346v91c0 41.398438-33.601562 75-75 75v-241c41.398438 0 75 33.601562 75 75zm0 0" fill="#a8d3d8"/><path d="m90 346v30c0 8.398438-6.597656 15-15 15s-15-6.601562-15-15v-30c0-8.402344 6.597656-15 15-15s15 6.597656 15 15zm0 0" fill="#697c86"/><path d="m90 346v30c0 8.398438-6.597656 15-15 15v-60c8.402344 0 15 6.597656 15 15zm0 0" fill="#596c76"/><path d="m345 210c-57.890625 0-105-47.109375-105-105s47.109375-105 105-105 105 47.109375 105 105-47.109375 105-105 105zm0 0" fill="#ff9f00"/><path d="m345 150c-24.8125 0-45-20.1875-45-45s20.1875-45 45-45 45 20.1875 45 45-20.1875 45-45 45zm0 0" fill="#fdbf00"/></svg>